<svg style="position: absolute; width: 0; height: 0; overflow: hidden;" version="1.1" xmlns="http://www.w3.org/2000/svg" xmlns:xlink="http://www.w3.org/1999/xlink">
<defs>
<symbol id="fa-home" viewBox="0 0 36 32">
<title>home</title>
<path d="M30.5 19.544v8.956c0 0.831-0.669 1.5-1.5 1.5h-7.25c-0.413 0-0.75-0.337-0.75-0.75v-7c0-0.413-0.337-0.75-0.75-0.75h-4.5c-0.412 0-0.75 0.337-0.75 0.75v7c0 0.413-0.338 0.75-0.75 0.75h-7.25c-0.831 0-1.5-0.669-1.5-1.5v-8.956c0-0.225 0.1-0.438 0.275-0.581l11.75-9.675c0.275-0.225 0.675-0.225 0.956 0l11.75 9.675c0.169 0.144 0.269 0.356 0.269 0.581zM35.725 15.738l-5.225-4.306v-8.656c0-0.413-0.337-0.75-0.75-0.75h-3.5c-0.413 0-0.75 0.337-0.75 0.75v4.537l-5.594-4.606c-1.106-0.913-2.706-0.913-3.813 0l-15.819 13.031c-0.319 0.262-0.362 0.738-0.1 1.056l1.594 1.938c0.263 0.319 0.738 0.363 1.056 0.1l14.7-12.106c0.275-0.225 0.675-0.225 0.956 0l14.7 12.106c0.319 0.262 0.794 0.219 1.056-0.1l1.594-1.938c0.263-0.325 0.212-0.794-0.106-1.056z"></path>
</symbol>
<symbol id="fa-spinner-third" viewBox="0 0 32 32">
<title>spinner-third</title>
<path d="M28.527 23.233l-1.737-1.003c-0.45-0.259-0.628-0.821-0.405-1.29 1.614-3.395 1.473-7.413-0.423-10.689-1.892-3.283-5.3-5.414-9.047-5.714-0.517-0.041-0.914-0.477-0.914-0.996v-2.006c0-0.582 0.495-1.038 1.075-0.998 5.112 0.357 9.776 3.244 12.351 7.713 2.581 4.462 2.749 9.944 0.503 14.549-0.255 0.523-0.898 0.723-1.401 0.433z"></path>
</symbol>
<symbol id="fa-search" viewBox="0 0 32 32">
<title>search</title>
<path d="M31.563 27.669l-6.231-6.231c-0.281-0.281-0.663-0.438-1.063-0.438h-1.019c1.725-2.206 2.75-4.981 2.75-8 0-7.181-5.819-13-13-13s-13 5.819-13 13 5.819 13 13 13c3.019 0 5.794-1.025 8-2.75v1.019c0 0.4 0.156 0.781 0.438 1.063l6.231 6.231c0.587 0.587 1.538 0.587 2.119 0l1.769-1.769c0.587-0.587 0.587-1.538 0.006-2.125zM13 21c-4.419 0-8-3.575-8-8 0-4.419 3.575-8 8-8 4.419 0 8 3.575 8 8 0 4.419-3.575 8-8 8z"></path>
</symbol>
<symbol id="fa-check" viewBox="0 0 32 32">
<title>check</title>
<path d="M10.869 27.463l-10.4-10.4c-0.625-0.625-0.625-1.638 0-2.263l2.263-2.263c0.625-0.625 1.638-0.625 2.263 0l7.006 7.006 15.006-15.006c0.625-0.625 1.638-0.625 2.263 0l2.263 2.263c0.625 0.625 0.625 1.638 0 2.263l-18.4 18.4c-0.625 0.625-1.638 0.625-2.263-0z"></path>
</symbol>
<symbol id="fa-users" viewBox="0 0 40 32">
<title>users</title>
<path d="M13.75 10.25c0-3.452 2.798-6.25 6.25-6.25s6.25 2.798 6.25 6.25-2.798 6.25-6.25 6.25-6.25-2.798-6.25-6.25zM3 13c0-2.761 2.239-5 5-5s5 2.239 5 5-2.239 5-5 5-5-2.239-5-5zM27 13c0-2.761 2.239-5 5-5s5 2.239 5 5-2.239 5-5 5-5-2.239-5-5zM25.625 17.75c2.416 0 4.375 1.959 4.375 4.375v4.375c0 0.828-0.672 1.5-1.5 1.5h-17c-0.828 0-1.5-0.672-1.5-1.5v-4.375c0-2.416 1.959-4.375 4.375-4.375h1.116c2.773 1.668 6.246 1.668 9.019 0h1.115zM8 22.125c0-0.748 0.13-1.467 0.368-2.135-1.371 0.072-2.758-0.258-3.976-0.99h-0.892c-1.933 0-3.5 1.567-3.5 3.5v2c0 0.828 0.672 1.5 1.5 1.5h6.5v-3.875zM36.5 19h-0.892c-1.218 0.733-2.605 1.062-3.976 0.99 0.233 0.634 0.368 1.366 0.368 2.13 0 0.002 0 0.003 0 0.005v-0 3.875h6.5c0.828 0 1.5-0.672 1.5-1.5v-2c0-1.933-1.567-3.5-3.5-3.5z"></path>
</symbol>
<symbol id="fa-list" viewBox="0 0 32 32">
<title>list</title>
<path d="M8 7.25v-2.5c0-0.552 0.448-1 1-1h22c0.552 0 1 0.448 1 1v2.5c0 0.552-0.448 1-1 1h-22c-0.552 0-1-0.448-1-1zM9 18.25h22c0.552 0 1-0.448 1-1v-2.5c0-0.552-0.448-1-1-1h-22c-0.552 0-1 0.448-1 1v2.5c0 0.552 0.448 1 1 1zM9 28.25h22c0.552 0 1-0.448 1-1v-2.5c0-0.552-0.448-1-1-1h-22c-0.552 0-1 0.448-1 1v2.5c0 0.552 0.448 1 1 1zM1 9h4c0.552 0 1-0.448 1-1v-4c0-0.552-0.448-1-1-1h-4c-0.552 0-1 0.448-1 1v4c0 0.552 0.448 1 1 1zM1 19h4c0.552 0 1-0.448 1-1v-4c0-0.552-0.448-1-1-1h-4c-0.552 0-1 0.448-1 1v4c0 0.552 0.448 1 1 1zM1 29h4c0.552 0 1-0.448 1-1v-4c0-0.552-0.448-1-1-1h-4c-0.552 0-1 0.448-1 1v4c0 0.552 0.448 1 1 1z"></path>
</symbol>
<symbol id="fa-plus" viewBox="0 0 28 32">
<title>plus</title>
<path d="M28 18.387v-4.775c0-0.831-0.669-1.5-1.5-1.5h-8.613v-8.613c0-0.831-0.669-1.5-1.5-1.5h-4.775c-0.831 0-1.5 0.669-1.5 1.5v8.613h-8.613c-0.831 0-1.5 0.669-1.5 1.5v4.775c0 0.831 0.669 1.5 1.5 1.5h8.613v8.613c0 0.831 0.669 1.5 1.5 1.5h4.775c0.831 0 1.5-0.669 1.5-1.5v-8.613h8.613c0.831 0 1.5-0.669 1.5-1.5z"></path>
</symbol>
</defs>
</svg>
